<svg width="60" height="61" viewBox="0 0 60 61" fill="none" xmlns="http://www.w3.org/2000/svg">
<g clip-path="url(#clip0_2301_27)">
<path d="M59.0626 1.30825C59.7992 1.84396 60.1006 2.55825 59.9666 3.4511L51.3952 54.8797C51.2836 55.527 50.9265 56.0292 50.3238 56.3864C50.0113 56.5649 49.6653 56.6542 49.2858 56.6542C49.0403 56.6542 48.7724 56.5984 48.4823 56.4868L30.8372 49.2882L20.8595 60.2368C20.4577 60.7056 19.9332 60.9399 19.2858 60.9399C18.9733 60.9399 18.7166 60.8953 18.5157 60.806C18.0916 60.6498 17.7568 60.3875 17.5113 60.0192C17.2657 59.6509 17.143 59.2435 17.143 58.7971V43.6632L1.3394 37.2011C0.51351 36.8886 0.0670818 36.2748 0.000117481 35.3596C-0.0668468 34.489 0.290296 33.8306 1.07155 33.3841L56.7858 1.24128C57.5671 0.772533 58.326 0.794853 59.0626 1.30825ZM47.6117 51.498L55.0113 7.2011L6.99789 34.8908L18.2479 39.4779L47.143 18.0828L31.1385 44.7681L47.6117 51.498Z" fill="white"/>
</g>
<defs>
<clipPath id="clip0_2301_27">
<rect width="60" height="60" fill="white" transform="matrix(1 0 0 -1 0 60.9399)"/>
</clipPath>
</defs>
</svg>
